<svg width="95" height="103" viewBox="0 0 95 103" fill="none" xmlns="http://www.w3.org/2000/svg">
<path d="M65.2695 47.4615C65.2695 37.5269 59.9872 29.2399 50.731 27.043V24.8462C50.731 22.1646 48.5664 20 45.8848 20C43.2033 20 41.0387 22.1646 41.0387 24.8462V27.0431C40.5703 27.1563 40.1179 27.2854 39.6656 27.4308C39.3263 27.5439 39.0033 27.6569 38.6801 27.7863C38.6801 27.7863 38.6639 27.7863 38.6639 27.8025C38.6477 27.8025 38.6317 27.8187 38.6155 27.8187C37.8723 28.1094 37.1454 28.4487 36.4347 28.8202C36.4185 28.8202 36.4024 28.8364 36.3862 28.8364L65.2693 59.3509V47.4615H65.2695Z" fill="#4469FC"/>
<path d="M71.7308 72.3224L32.4447 31.7925L24.1578 23.2471L20.0386 27.3501L29.0847 36.3964L29.1009 36.4126C27.4047 39.611 26.5002 43.391 26.5002 47.4618V63.6155L20.0386 70.0771V73.3078H64.3971L70.8587 79.7694L74.9617 75.6502L71.7308 72.3224Z" fill="#4469FC"/>
<path d="M45.8848 82.9997C49.4549 82.9997 52.3464 80.1082 52.3464 76.5381H39.4233C39.4233 80.1082 42.3148 82.9997 45.8848 82.9997Z" fill="#4469FC"/>
</svg>
